<svg width="47" height="50" viewBox="0 0 47 50" fill="none" xmlns="http://www.w3.org/2000/svg">
<path d="M36.2366 0.535322C37.6905 1.40764 38.6417 2.76716 39.0869 4.39744C39.4375 6.12923 38.9423 7.37895 38.1585 8.93041C37.9626 9.20864 37.7615 9.48366 37.5476 9.74819C37.6639 9.76111 37.7801 9.77402 37.9 9.78732C40.6113 10.1984 43.031 11.7972 44.6817 13.9737C46.8748 17.281 47.4253 20.9778 46.6959 24.855C44.6044 34.5385 36.7589 41.6447 28.8033 46.8041C27.6585 47.5407 27.6585 47.5407 26.9578 47.7752C27.2576 47.0326 27.6464 46.6905 28.2815 46.2163C30.1994 44.7176 31.791 42.9564 33.2709 41.0285C33.377 40.8912 33.4832 40.7538 33.5925 40.6123C37.8585 35.0565 41.8155 28.2658 41.2133 20.9927C40.8888 19.4014 40.1292 17.862 38.8387 16.8407C36.4108 15.325 32.7378 15.5645 30.0392 16.1022C27.5577 16.6844 25.1973 17.7325 23.0717 19.1392C22.6811 19.3572 22.6811 19.3572 22.0702 19.3572C21.7933 18.9675 21.7933 18.9675 21.5101 18.4372C18.929 13.9528 13.9076 11.6395 9.24023 9.95264C9.30744 9.8177 9.37464 9.68277 9.44388 9.54375C13.4388 9.74579 17.3941 10.0167 20.9582 12.0028C21.482 12.2708 21.9151 12.4325 22.5022 12.3321C22.9812 12.175 23.4392 11.9901 23.903 11.7927C24.2229 11.6742 24.5432 11.5571 24.864 11.4413C25.1887 11.3202 25.5132 11.1988 25.8377 11.0771C27.086 10.609 28.3383 10.163 29.6052 9.74819C29.4498 9.57109 29.2944 9.39399 29.1343 9.21152C28.023 7.85256 27.6749 6.5182 27.809 4.77439C28.0545 3.33574 28.7366 2.11371 29.8677 1.18939C31.6971 -0.0639068 34.1613 -0.40029 36.2366 0.535322Z" fill="#FDD3E1"/>
<path d="M1.50199 12.2015C2.03657 12.1249 2.03657 12.1249 2.52024 12.2015C2.72389 12.406 2.72389 12.406 2.72508 12.7883C2.71418 12.9521 2.70329 13.1158 2.69206 13.2845C2.6813 13.4637 2.67054 13.6429 2.65945 13.8275C2.63473 14.2056 2.60981 14.5836 2.58467 14.9616C2.57391 15.1418 2.56314 15.3221 2.55206 15.5078C2.54116 15.6725 2.53027 15.8371 2.51904 16.0068C2.52033 16.5346 2.60536 17.004 2.72389 17.5172C2.78085 17.3543 2.83782 17.1914 2.89651 17.0236C3.44025 15.5808 3.90742 14.7302 5.16768 13.8371C5.4365 13.9721 5.70532 14.107 5.98228 14.246C5.89587 14.8677 5.80249 15.4149 5.56225 15.9966C5.35468 16.5384 5.33859 16.9419 5.37133 17.5172C5.46479 17.4286 5.55825 17.3401 5.65453 17.2488C5.77949 17.135 5.90445 17.0211 6.03319 16.9038C6.15605 16.79 6.27891 16.6761 6.40549 16.5588C6.79688 16.2905 6.79688 16.2905 7.61148 16.2905C7.75149 16.6099 7.75149 16.6099 7.81513 17.1083C7.62313 17.5901 7.41873 18.0672 7.20418 18.5394C6.92773 19.5198 6.98522 20.5074 7.00053 21.5166C7.00575 21.8619 7.01002 22.2072 7.01326 22.5524C7.01562 22.7044 7.01798 22.8563 7.02042 23.0129C7.00053 23.4461 7.00053 23.4461 6.88518 23.8725C6.7521 24.3055 6.7521 24.3055 7.00053 24.8772C7.26796 25.0215 7.54021 25.1568 7.81513 25.2861C8.06853 25.4987 8.3154 25.7193 8.55654 25.9458C9.45144 26.7488 10.4117 27.3867 11.4299 28.0206C11.6855 28.1839 11.6855 28.1839 11.9462 28.3504C12.976 29.006 12.976 29.006 14.1283 29.375C14.0424 29.2093 13.9566 29.0435 13.8681 28.8727C13.0844 27.2825 12.4139 25.7829 12.8085 23.9868C13.0551 23.2599 13.3408 22.7125 13.9246 22.2194C14.4465 22.1428 14.4465 22.1428 14.9429 22.2194C15.3502 22.8328 15.3502 22.8328 15.4647 23.625C16.251 27.2143 20.2555 30.1668 22.8852 32.4417C24.875 34.2003 26.4688 36.602 26.6464 39.3226C26.7289 43.1917 25.5986 46.0925 23.6998 49.4108C23.431 49.4108 23.1622 49.4108 22.8852 49.4108C22.8406 49.2131 22.796 49.0155 22.75 48.8118C21.6252 44.075 18.1824 41.3135 14.4579 38.4893C13.5871 37.8245 12.7797 37.1082 11.9764 36.3638C11.4827 35.919 10.9719 35.5102 10.4499 35.0996C5.9419 31.4125 1.15379 26.1202 0.0764376 20.175C0.0131543 19.5179 -0.00114109 18.867 6.89497e-05 18.2072C0.00024943 18.0291 0.00042991 17.8511 0.000615861 17.6676C0.035298 15.7463 0.367705 13.8004 1.50199 12.2015ZM3.13118 19.1527C3.33483 19.5616 3.33483 19.5616 3.33483 19.5616L3.13118 19.1527Z" fill="#FEF7F4"/>
<path d="M29.0424 23.1442C29.5763 23.5925 29.8784 24.0646 30.2165 24.6728C30.3131 24.5294 30.4097 24.386 30.5093 24.2383C31.4034 23.2312 32.4375 22.4209 33.7931 22.2066C34.9553 22.1579 35.8559 22.411 36.7301 23.1953C37.7654 24.3162 38.27 25.3277 38.2225 26.8945C37.8391 29.5212 35.6224 31.6352 33.8822 33.464C33.6857 33.6739 33.6857 33.6739 33.4853 33.888C32.8625 34.5365 32.2028 35.1347 31.5148 35.7129C31.3694 35.8352 31.2239 35.9575 31.0741 36.0835C30.6238 36.3262 30.6238 36.3262 30.1521 36.3462C29.3149 36.0024 28.757 35.4093 28.1164 34.7801C27.9807 34.6493 27.8449 34.5185 27.7051 34.3838C27.4376 34.1253 27.1709 33.866 26.9051 33.6056C26.6195 33.3266 26.33 33.0516 26.0393 32.778C24.3377 31.1503 22.4891 28.8228 22.3633 26.3722C22.4525 25.0527 23.0116 24.0572 23.967 23.165C25.6151 21.8731 27.3809 22.0213 29.0424 23.1442Z" fill="#FDD3E1"/>
<path d="M27.7726 46.5486C27.907 46.5486 28.0414 46.5486 28.1799 46.5486C28.2471 46.751 28.3143 46.9534 28.3836 47.1619C27.6779 47.4655 27.6779 47.4655 26.958 47.7753C27.1926 47.2707 27.375 46.9477 27.7726 46.5486Z" fill="#F3E2E8"/>
<path d="M36.9371 35.7129C37.0715 35.7129 37.2059 35.7129 37.3444 35.7129C37.2196 36.3184 37.0891 36.6085 36.7335 37.144C36.5991 37.144 36.4647 37.144 36.3262 37.144C36.708 36.1729 36.708 36.1729 36.9371 35.7129Z" fill="#F3D1DC"/>
</svg>
