<svg width="467" height="492" viewBox="0 0 467 492" fill="none" xmlns="http://www.w3.org/2000/svg">
<path opacity="0.7" d="M0 0.0774539C7.78212 -0.0584621 15.1338 0.172379 22.8027 1.61471C23.3962 1.72172 23.3962 1.72172 24.0017 1.83089C44.1777 5.52368 62.8025 14.118 75.2205 33.1605C84.684 48.1142 90.2431 64.998 93.6052 82.8652C93.7654 83.7083 93.7652 83.7083 93.9286 84.5685C95.5833 93.7598 96.3846 103.039 96.811 112.393C96.9386 115.168 97.082 117.942 97.2252 120.716C97.2693 121.574 97.2693 121.574 97.3142 122.449C98.042 136.379 99.0133 150.307 100.361 164.18C100.395 164.544 100.43 164.909 100.466 165.284C100.883 169.613 101.483 173.863 102.277 178.127C102.582 179.773 102.856 181.42 103.116 183.075C105.819 199.817 111.232 213.809 121.767 226.054C122.137 226.497 122.507 226.939 122.889 227.395C125.766 230.754 128.903 233.581 132.256 236.303C132.508 236.511 132.76 236.72 133.019 236.935C150.779 251.537 173.234 255.129 194.65 256.327C195.458 256.373 196.266 256.42 197.074 256.467C199.03 256.579 200.987 256.69 202.944 256.8C202.907 235.123 202.865 213.447 202.817 191.77C202.811 189.201 202.805 186.631 202.8 184.062C202.798 183.295 202.798 183.295 202.796 182.512C202.778 174.272 202.763 166.033 202.749 157.793C202.735 149.314 202.717 140.835 202.697 132.356C202.684 127.14 202.674 121.925 202.667 116.709C202.662 113.114 202.654 109.518 202.644 105.923C202.638 103.861 202.633 101.798 202.632 99.7359C202.628 91.1176 202.478 82.5304 202.063 73.9235C202.044 73.5283 202.025 73.1331 202.005 72.7259C201.013 52.0638 201.013 52.0638 191.543 34.922C191.263 34.6016 190.982 34.2812 190.693 33.9512C177.112 19.4753 154.604 19.7046 137.272 19.037C137.272 14.6404 137.272 10.2439 137.272 5.71407C200.632 5.71407 263.992 5.71407 329.272 5.71407C329.272 9.94153 329.272 14.169 329.272 18.5245C327.78 18.6487 326.289 18.7729 324.752 18.9009C323.268 19.0284 321.784 19.158 320.3 19.2877C319.288 19.3751 318.276 19.4606 317.264 19.5439C302.634 20.7513 287.482 22.8419 275.913 33.8971C275.46 34.3113 275.46 34.3113 274.997 34.7338C266.266 43.4883 265.614 59.2624 264.923 71.3998C264.904 71.736 264.885 72.0723 264.865 72.4187C264.411 80.545 264.37 88.6649 264.367 96.8045C264.366 98.9625 264.359 101.121 264.352 103.279C264.342 106.997 264.336 110.716 264.331 114.434C264.324 119.81 264.313 125.186 264.3 130.562C264.279 139.289 264.262 148.017 264.248 156.744C264.234 165.21 264.219 173.676 264.2 182.142C264.199 182.665 264.198 183.189 264.197 183.729C264.191 186.358 264.186 188.987 264.18 191.615C264.133 213.343 264.092 235.071 264.056 256.8C264.363 256.764 264.671 256.729 264.988 256.692C265.598 256.622 265.598 256.622 266.22 256.551C266.822 256.482 266.822 256.482 267.437 256.412C269.053 256.241 270.663 256.15 272.284 256.067C272.964 256.03 273.643 255.993 274.322 255.956C274.845 255.928 274.845 255.928 275.378 255.899C301.374 254.451 325.776 247.614 344.777 226.567C345.192 226.107 345.607 225.647 346.035 225.174C358.15 211.057 362.614 192.683 365.3 173.788C365.382 173.233 365.464 172.678 365.549 172.107C366.814 163.498 367.514 154.89 368.058 146.193C368.084 145.776 368.111 145.36 368.138 144.932C368.186 144.155 368.233 143.378 368.278 142.601C368.385 140.855 368.521 139.126 368.725 137.392C368.96 135.37 369.074 133.349 369.16 131.313C369.195 130.537 369.231 129.76 369.266 128.984C369.284 128.582 369.302 128.179 369.32 127.765C370.102 110.272 371.045 92.9642 374.877 75.9155C375.057 75.0829 375.237 74.2502 375.417 73.4175C378.453 59.6207 383.175 45.8276 390.839 34.4096C391.04 34.1044 391.241 33.7992 391.448 33.4848C404.495 13.7582 423.979 4.67864 445.109 1.10229C445.639 1.01114 445.639 1.01114 446.18 0.918141C453.086 -0.217214 460.039 -0.0194378 467 0.0774539C467 4.47401 467 8.87057 467 13.4004C464.601 13.9235 464.601 13.9235 462.154 14.4572C455.096 16.1251 448.816 18.9172 444.539 25.8165C442.414 29.6419 441.039 33.6177 440.093 37.9965C440.018 38.3292 439.943 38.662 439.866 39.0048C438.723 44.1455 438.027 49.3237 437.499 54.5861C437.445 55.1076 437.39 55.6291 437.334 56.1665C436.145 69.033 436.343 82.1048 436.192 95.0253C436.043 107.563 435.711 120.042 434.763 132.538C434.724 133.048 434.686 133.558 434.646 134.084C433.549 148.437 431.999 162.916 428.691 176.862C428.571 177.377 428.45 177.892 428.326 178.423C426.733 185.176 425.033 191.875 422.763 198.384C422.645 198.721 422.528 199.057 422.407 199.404C416.158 217.022 404.371 233.312 390.721 244.368C389.882 245.05 389.056 245.748 388.229 246.447C373.183 258.96 355.857 267.019 337.937 272.685C337.624 272.784 337.311 272.883 336.989 272.985C331.414 274.741 325.827 276.042 320.122 277.136C318.961 277.363 317.801 277.591 316.64 277.819C315.897 277.964 315.155 278.109 314.412 278.253C312.663 278.593 310.927 278.958 309.194 279.388C305.663 280.202 302.043 280.487 298.459 280.883C298.063 280.928 297.667 280.972 297.259 281.018C294.898 281.282 292.537 281.54 290.175 281.795C289.256 281.895 288.337 281.998 287.418 282.101C286.675 282.184 286.675 282.184 285.918 282.268C285.512 282.314 285.107 282.36 284.689 282.407C279.971 282.85 275.29 282.982 270.556 282.957C269.922 282.955 269.288 282.953 268.653 282.952C267.121 282.947 265.588 282.941 264.056 282.933C264.104 299.231 264.154 315.528 264.207 331.826C264.213 333.756 264.219 335.687 264.225 337.618C264.227 338.195 264.227 338.195 264.229 338.783C264.249 344.979 264.268 351.175 264.286 357.371C264.304 363.745 264.324 370.118 264.346 376.492C264.359 380.414 264.371 384.336 264.382 388.258C264.39 391.283 264.4 394.307 264.412 397.332C264.416 398.56 264.419 399.788 264.422 401.017C264.447 411.889 264.54 422.784 265.681 433.592C265.796 434.692 265.901 435.793 266.005 436.895C266.975 446.636 269.081 455.199 275.457 462.28C275.76 462.632 276.064 462.984 276.376 463.347C285.925 473.727 299.782 476.163 312.397 477.652C312.8 477.7 313.202 477.748 313.617 477.798C317.035 478.177 320.453 478.326 323.884 478.453C325.813 478.527 327.741 478.601 329.728 478.677C329.728 483.074 329.728 487.47 329.728 492C266.217 492 202.707 492 137.272 492C137.272 487.603 137.272 483.207 137.272 478.677C138.228 478.627 139.183 478.577 140.167 478.525C168.545 477.254 168.545 477.254 192.455 461.767C192.831 461.371 192.831 461.371 193.214 460.967C194.9 459.022 195.99 456.692 197.101 454.305C197.253 453.988 197.405 453.672 197.562 453.345C200.018 447.818 200.464 441.376 201.066 435.308C201.175 434.212 201.292 433.118 201.411 432.024C201.86 427.686 202.127 423.356 202.279 418.992C202.308 418.157 202.308 418.157 202.338 417.304C202.539 411.121 202.568 404.941 202.582 398.755C202.586 397.48 202.591 396.206 202.596 394.932C202.605 392.22 202.614 389.507 202.621 386.794C202.631 382.872 202.644 378.95 202.658 375.028C202.679 368.661 202.699 362.293 202.718 355.926C202.736 349.75 202.755 343.575 202.775 337.399C202.777 336.826 202.776 336.826 202.778 336.241C202.784 334.322 202.791 332.404 202.797 330.485C202.849 314.634 202.898 298.784 202.944 282.933C202.618 282.934 202.292 282.934 201.957 282.935C200.463 282.938 198.969 282.94 197.475 282.942C196.962 282.944 196.449 282.945 195.921 282.946C192.14 282.95 188.39 282.839 184.617 282.549C184.019 282.504 183.422 282.46 182.807 282.414C171.778 281.562 160.723 280.342 149.852 278.054C148.718 277.818 147.581 277.6 146.443 277.386C118.511 271.988 90.7362 259.769 69.7764 237.84C69.1701 237.251 68.5621 236.663 67.9521 236.079C63.6166 231.803 60.0111 227.111 56.5508 221.955C56.2263 221.479 55.9018 221.004 55.5674 220.514C46.4974 206.926 41.1223 190.773 37.8525 174.3C37.7122 173.619 37.5715 172.938 37.4303 172.257C36.2882 166.691 35.3869 161.116 34.6317 155.469C34.5733 155.035 34.5149 154.601 34.4548 154.154C31.8874 134.956 31.1405 115.751 30.887 96.3562C30.8824 96.0042 30.8776 95.6521 30.8728 95.2894C30.8231 91.4877 30.7817 87.6861 30.7516 83.8842C31.5468 51.3897 31.5465 51.3897 20.3693 22.8481C14.3156 16.9724 7.6715 15.0243 0 13.4004C0 9.0038 0 4.60724 0 0.0774539Z" fill="#EBCDC2"/>
</svg>
